<?xml version="1.0" encoding="UTF-8"?>
<!DOCTYPE svg PUBLIC "-//W3C//DTD SVG 1.1//EN" "http://www.w3.org/Graphics/SVG/1.1/DTD/svg11.dtd">
<!-- Creator: CorelDRAW 2019 (64-Bit) -->
<svg xmlns="http://www.w3.org/2000/svg" xml:space="preserve" width="167.104mm" height="173.347mm" version="1.1" style="shape-rendering:geometricPrecision; text-rendering:geometricPrecision; image-rendering:optimizeQuality; fill-rule:evenodd; clip-rule:evenodd"
viewBox="0 0 16709.32 17333.55"
 xmlns:xlink="http://www.w3.org/1999/xlink"
 xmlns:xodm="http://www.corel.com/coreldraw/odm/2003">
 <defs>
  <style type="text/css">
   <![CDATA[
    .fil0 {fill:#00CF4D}
   ]]>
  </style>
 </defs>
 <g id="Слой_x0020_1">
  <metadata id="CorelCorpID_0Corel-Layer"/>
  <g id="_2318525709616">
   <polygon class="fil0" points="10541.49,5872.36 12398.92,6262.19 12398.92,7546.35 10541.49,6984.53 "/>
   <path class="fil0" d="M4599.45 691.34c-2.61,-866.31 -601.8,-672.91 -1351.31,-672.91 -658.68,0 -1317.29,0 -1975.9,0 -824.88,-0.05 -1259.11,-174.91 -1254.16,770.63l2.45 13976.27c0,2921.55 -311.41,2553.29 1492.7,2553.29l11999.73 0c1145.74,0 1256.44,138.31 1251.89,-770.06l-0.12 -2988.04c1.03,-343.46 57.04,-654.29 -225.57,-782.3 -232.12,-105.19 -9205.56,-36.09 -9941.47,-36.09l1.76 -12050.79z"/>
   <path class="fil0" d="M8770.67 2669.22c0,-332.07 227.68,-246.45 549.15,-243.55l5171.01 0.57 34.16 -2379.17 -6843.24 0c-1174.3,0 -2352.25,541.08 -2352.25,1658.28l11.78 10197.5c1943.8,56.24 4738.71,4.95 6774.09,4.95 1221.14,0 2377.92,-522.18 2377.92,-1720.67l-16.51 -660.49 -5706.1 0 0 -6857.42z"/>
   <path class="fil0" d="M10159.5 5391.04l2722.46 44.69 6.88 3413.28 -2741.91 -1268.68 12.58 -2189.29zm4110.6 2939.6l-21.51 -2525.28 919.64 0 21.52 2105.73 626.79 -286.87 0 -2694.62 342.38 -2.85 -1561.76 -1791.48c-163.41,75.25 -1794.67,1794.78 -1894.1,1985.97l474.82 0 7.11 3702.03c4.79,-0.74 514.16,-232.41 1085.11,-492.64zm1807.25 -3209.39l631.97 0 -2112.16 -2324.53 -4431.68 962.85 -807.29 1637.57 447.9 -2.44 -0.29 2338.47 3139.33 1481.16c248.45,40.7 630.78,-220.11 826.64,-307.08l2305.58 -1124.39 0 -2661.6z"/>
  </g>
 </g>
</svg>
