<svg xmlns="http://www.w3.org/2000/svg" viewBox="0 0 832.23 204.35"><defs><style>.cls-1{fill:none;}.cls-2{fill:#ededed;}.cls-3{fill:#eebf12;}</style></defs><title>Ресурс 7</title><g id="Слой_2" data-name="Слой 2"><g id="Слой_1-2" data-name="Слой 1"><rect class="cls-1" width="832.23" height="204.35"/><path class="cls-2" d="M598.61,75.3A5.28,5.28,0,0,0,596,70.73l-26.22-14.8a5.29,5.29,0,0,0-5.29,0L538.83,70.73a5.3,5.3,0,0,0-2.64,4.58V104.9a5.28,5.28,0,0,0,2.65,4.58l25.62,14.79a5.27,5.27,0,0,0,5.29,0L596,109.47a5.29,5.29,0,0,0,2.64-4.58Zm-14.79,25.94-15.07,8.5a3,3,0,0,1-3,0L551,101.24a3,3,0,0,1-1.52-2.63v-17A3,3,0,0,1,551,79l14.73-8.51a3.05,3.05,0,0,1,3,0L583.82,79a3,3,0,0,1,1.52,2.63v17A3.05,3.05,0,0,1,583.82,101.24Z"/><path class="cls-3" d="M183.16,66.41a11.54,11.54,0,0,0-5.77-10L120.18,24.15a11.53,11.53,0,0,0-11.53,0L52.74,56.44a11.54,11.54,0,0,0-5.77,10V131a11.54,11.54,0,0,0,5.77,10l50.19,29-.84-54.55A8.51,8.51,0,0,1,104,110L119.07,91a4.11,4.11,0,0,1,7.32,2.5l.45,29.73c.29,19.06.61,35,.85,45.75L177.41,141a11.55,11.55,0,0,0,5.76-10ZM102.29,97.58l-.37-.13-.51-33.32c-.06-4.11,2.53-7.48,5.78-7.53l13-.2c3.14,0,5.73,3.13,5.79,7.1l.08,4.89C126.15,72,102.29,97.58,102.29,97.58Z"/><path class="cls-2" d="M203.25,60.67h10.8a2.88,2.88,0,0,1,2.88,2.88V118a2.89,2.89,0,0,1-2.88,2.89h-10.8a2.89,2.89,0,0,1-2.88-2.89V63.55A2.88,2.88,0,0,1,203.25,60.67Z"/><path class="cls-2" d="M239.46,60.67h12.3a2.87,2.87,0,0,1,2.56,1.56l13,25.22c0,.06.05.11.08.16l5.93,13.45h.39c-.77-6.49-2.12-15.56-2.12-23V63.55a2.88,2.88,0,0,1,2.88-2.88h10a2.88,2.88,0,0,1,2.88,2.88V118a2.89,2.89,0,0,1-2.88,2.89H272.22a2.88,2.88,0,0,1-2.56-1.57L256.64,94a1,1,0,0,1-.07-.15l-5.94-13.36h-.38c.76,6.86,2.11,15.56,2.11,23V118a2.89,2.89,0,0,1-2.88,2.89h-10a2.89,2.89,0,0,1-2.89-2.89V63.55A2.88,2.88,0,0,1,239.46,60.67Z"/><path class="cls-2" d="M369.83,60.67H404.5a2.88,2.88,0,0,1,2.88,2.88v7.58A2.88,2.88,0,0,1,404.5,74H386.39a2.88,2.88,0,0,0-2.88,2.88v3.68a2.88,2.88,0,0,0,2.88,2.89H401a2.88,2.88,0,0,1,2.88,2.88v7.57A2.88,2.88,0,0,1,401,96.79H386.39a2.89,2.89,0,0,0-2.88,2.89v5a2.88,2.88,0,0,0,2.88,2.89h19.07a2.88,2.88,0,0,1,2.89,2.88V118a2.89,2.89,0,0,1-2.89,2.89H369.83A2.89,2.89,0,0,1,367,118V63.55A2.88,2.88,0,0,1,369.83,60.67Z"/><path class="cls-2" d="M424.39,111.07l5.74-6.65a2.89,2.89,0,0,1,3.76-.52c4,2.63,8.65,4.38,12.59,4.38,5,0,7.12-1.57,7.12-4.26,0-2.87-3.17-3.8-8.47-5.84L437.33,95c-6.74-2.59-12.61-8-12.61-16.76,0-10.28,9.62-18.71,23.3-18.71a31.15,31.15,0,0,1,18.5,6.12,2.9,2.9,0,0,1,.47,4.15l-4.84,5.84a2.9,2.9,0,0,1-3.69.64,19.58,19.58,0,0,0-10.44-3c-4,0-6.55,1.39-6.55,4.07,0,2.88,3.56,3.89,9.24,6l7.61,2.88c7.8,3,12.23,8.15,12.23,16.48,0,10.19-8.86,19.27-24.46,19.27a37.69,37.69,0,0,1-21.18-6.65A2.92,2.92,0,0,1,424.39,111.07Z"/><path class="cls-2" d="M493.47,74H482.68a2.89,2.89,0,0,1-2.89-2.88V63.55a2.89,2.89,0,0,1,2.89-2.88h43.91a2.88,2.88,0,0,1,2.89,2.88v7.58A2.88,2.88,0,0,1,526.59,74H515.8a2.88,2.88,0,0,0-2.88,2.88V118a2.89,2.89,0,0,1-2.89,2.89H499.24a2.89,2.89,0,0,1-2.88-2.89V76.89A2.88,2.88,0,0,0,493.47,74Z"/><path class="cls-2" d="M616.9,60.67h12.31a2.88,2.88,0,0,1,2.56,1.56l13,25.22.07.16,5.94,13.45h.38c-.77-6.49-2.12-15.56-2.12-23V63.55A2.89,2.89,0,0,1,652,60.67h10a2.89,2.89,0,0,1,2.89,2.88V118a2.9,2.9,0,0,1-2.89,2.89h-12.3a2.88,2.88,0,0,1-2.56-1.57L634.08,94l-.07-.15-5.94-13.36h-.38c.77,6.86,2.12,15.56,2.12,23V118a2.89,2.89,0,0,1-2.88,2.89h-10A2.89,2.89,0,0,1,614,118V63.55A2.88,2.88,0,0,1,616.9,60.67Z"/><path class="cls-2" d="M682.64,111.07l5.74-6.65a2.87,2.87,0,0,1,3.75-.52c4,2.63,8.66,4.38,12.59,4.38,5,0,7.12-1.57,7.12-4.26,0-2.87-3.17-3.8-8.47-5.84L695.57,95C688.83,92.44,683,87,683,78.27c0-10.28,9.63-18.71,23.3-18.71a31.15,31.15,0,0,1,18.5,6.12,2.89,2.89,0,0,1,.47,4.15l-4.84,5.84a2.89,2.89,0,0,1-3.68.64,19.62,19.62,0,0,0-10.45-3c-4,0-6.55,1.39-6.55,4.07,0,2.88,3.56,3.89,9.25,6l7.6,2.88c7.8,3,12.23,8.15,12.23,16.48,0,10.19-8.86,19.27-24.46,19.27a37.63,37.63,0,0,1-21.17-6.65A2.91,2.91,0,0,1,682.64,111.07Z"/><path class="cls-2" d="M747.47,60.67h34.67A2.88,2.88,0,0,1,785,63.55v7.58A2.88,2.88,0,0,1,782.14,74H764a2.88,2.88,0,0,0-2.89,2.88v3.68A2.89,2.89,0,0,0,764,83.46h14.64a2.88,2.88,0,0,1,2.89,2.88v7.57a2.88,2.88,0,0,1-2.89,2.88H764a2.89,2.89,0,0,0-2.89,2.89v5a2.89,2.89,0,0,0,2.89,2.89H783.1a2.88,2.88,0,0,1,2.88,2.88V118a2.89,2.89,0,0,1-2.88,2.89H747.47a2.89,2.89,0,0,1-2.89-2.89V63.55A2.88,2.88,0,0,1,747.47,60.67Z"/><path class="cls-2" d="M220.87,144.57A5.94,5.94,0,0,1,217,143a8,8,0,0,0-1.75-1.2,8.63,8.63,0,0,0-4.05-.93,8.67,8.67,0,0,0-8.61,8.56,8.56,8.56,0,0,0,2.5,6.24,8.9,8.9,0,0,0,10.1,1.69,9.09,9.09,0,0,0,1.67-1.1,6,6,0,0,1,3.85-1.54h.08a10.3,10.3,0,0,1-3.92,4,10.87,10.87,0,0,1-5.52,1.43,10.75,10.75,0,0,1-7.84-3.1,10.36,10.36,0,0,1-3.14-7.69,10.14,10.14,0,0,1,.84-4.08,10.34,10.34,0,0,1,2.5-3.48,10.66,10.66,0,0,1,3.4-2.21,11.67,11.67,0,0,1,9.83.72,10.64,10.64,0,0,1,4,4.24Z"/><path class="cls-2" d="M347.11,150.65a5.21,5.21,0,0,0-2.36-1.83,1.07,1.07,0,0,0-.22-.1,4.45,4.45,0,0,0,1.73-1.65,5,5,0,0,0,.57-2.38,4.82,4.82,0,0,0-1.71-4.1,1.3,1.3,0,0,0-.33-.23,9.11,9.11,0,0,0-5-1.1h-2.5a1.48,1.48,0,0,0-1.43,1.1,2.33,2.33,0,0,0,0,.37V158.3a1.46,1.46,0,0,0,1.47,1.47h3.25c2.57,0,4.44-.49,5.64-1.47a5.58,5.58,0,0,0,1.79-4.59A5.19,5.19,0,0,0,347.11,150.65Zm-9.27-8.4a1.28,1.28,0,0,1,1.26-1h.55a7.17,7.17,0,0,1,3.84.81,2.63,2.63,0,0,1,.53.47,3.12,3.12,0,0,1,.37.59,2.42,2.42,0,0,1,.2.69,3.59,3.59,0,0,1,.08.81,3,3,0,0,1-1.24,2.71,6,6,0,0,1-2.73.75,1.94,1.94,0,0,1-.34,0H339.1a1.3,1.3,0,0,1-1.26-1.06Zm6.79,14.61a6.36,6.36,0,0,1-3.84,1h-1.47a1.5,1.5,0,0,1-1.48-1.49v-4.78a1.47,1.47,0,0,1,1.48-1.46h1.47a6.27,6.27,0,0,1,3.8.95,3.45,3.45,0,0,1,1.26,2.93A3.41,3.41,0,0,1,344.63,156.86Z"/><path class="cls-2" d="M304.67,140a1,1,0,0,0-2,0h0v11.77a8.37,8.37,0,0,1-1.15,4.9,4.12,4.12,0,0,1-3.58,1.6,4.76,4.76,0,0,1-2.49-.67,4.36,4.36,0,0,1-1.68-1.83,4.57,4.57,0,0,1-.26-.62c-.06-.21-.11-.44-.16-.7a14.62,14.62,0,0,1-.12-2.26v-12s0-.05,0-.07a1.05,1.05,0,1,0-2.1,0h0V152.3c0,2.72.56,4.71,1.69,6s2.88,1.92,5.27,1.92a6.17,6.17,0,0,0,5-2q1.65-2,1.65-5.94V140Z"/><path class="cls-2" d="M260.62,158.78a1,1,0,0,0-.91-1v0H253.6a1.38,1.38,0,0,1-1.38-1.38V140.13h0a1,1,0,0,0-2.1,0h0v18.25a1.38,1.38,0,0,0,1.38,1.39h8.22v0A1,1,0,0,0,260.62,158.78Z"/><path class="cls-2" d="M319.87,73.46l-2.64-10.6a2.89,2.89,0,0,0-2.8-2.19H303.06a2.89,2.89,0,0,0-2.76,3.73l12.09,39.36Z"/><path class="cls-2" d="M352.26,60.67H341.48a2.86,2.86,0,0,0-2.65,1.85L335.61,75.6,332.86,87c-1.64,6.39-2.89,12.59-4.62,19.08h-.15l-3.65,14.82h11.1a2.89,2.89,0,0,0,2.76-2L355,64.4A2.88,2.88,0,0,0,352.26,60.67Z"/></g></g></svg>